<?xml version="1.0" encoding="utf-8"?>
<!-- Generator: Adobe Illustrator 23.0.1, SVG Export Plug-In . SVG Version: 6.00 Build 0)  -->
<svg version="1.1" xmlns="http://www.w3.org/2000/svg" xmlns:xlink="http://www.w3.org/1999/xlink" x="0px" y="0px"
	 viewBox="0 0 756.4 252.4" style="enable-background:new 0 0 756.4 252.4;" xml:space="preserve">
<style type="text/css">
	.st0{fill:#FFFFFF;}
	.st1{fill:#1D3851;}
	.st2{fill:#3F9929;}
	.st3{fill:#3366CC;}
	.st4{fill-rule:evenodd;clip-rule:evenodd;fill:#FFFFFF;}
	.st5{fill-rule:evenodd;clip-rule:evenodd;fill:#312782;}
	.st6{fill:#312782;}
	.st7{fill:#1D1D1B;}
	.st8{fill-rule:evenodd;clip-rule:evenodd;fill:#1D1D1B;}
</style>
<g id="Camada_1">
	<g>
		<g>
			<path class="st4" d="M107.6,107.7c10.2,0,18.5,8.3,18.5,18.5c0,10.2-8.3,18.5-18.5,18.5c-10.2,0-18.5-8.3-18.5-18.5
				C89.1,116,97.4,107.7,107.6,107.7 M107.1,119.8c3.4,0,6.2,2.8,6.2,6.2c0,3.4-2.8,6.2-6.2,6.2c-3.4,0-6.2-2.8-6.2-6.2
				C100.9,122.5,103.7,119.8,107.1,119.8z"/>
			<path class="st4" d="M64.4,161.1c-7.7-9.5-12.4-21.7-12.4-34.9c0-13.2,4.6-25.4,12.4-34.9V161.1z M142.5,169.4
				c-9.5,7.7-21.7,12.4-34.9,12.4c-13.2,0-25.4-4.6-34.9-12.4H142.5z M150.9,91.3c7.7,9.5,12.4,21.7,12.4,34.9
				c0,13.2-4.6,25.4-12.4,34.9V91.3z M107.6,70.6c13.2,0,25.4,4.6,34.9,12.4H72.7C82.2,75.2,94.4,70.6,107.6,70.6z"/>
			<path class="st4" d="M107.6,95.3c17.1,0,30.9,13.8,30.9,30.9c0,17.1-13.8,30.9-30.9,30.9c-17.1,0-30.9-13.8-30.9-30.9
				C76.7,109.1,90.6,95.3,107.6,95.3 M76.7,95.3h61.8v61.8H76.7V95.3z"/>
			<path class="st4" d="M107.6,58.2c37.5,0,68,30.4,68,68c0,37.5-30.4,68-68,68c-37.5,0-68-30.4-68-68
				C39.7,88.7,70.1,58.2,107.6,58.2 M107.6,45.9c44.3,0,80.3,36,80.3,80.3c0,44.3-36,80.3-80.3,80.3c-44.3,0-80.3-36-80.3-80.3
				C27.3,81.8,63.3,45.9,107.6,45.9z"/>
		</g>
		<path class="st0" d="M585.1,158c0,2.7,0.6,4.8,1.9,6.2c1.3,1.4,2.9,2.2,4.7,2.2c1.9,0,3.5-0.7,4.7-2.2c1.3-1.4,1.9-3.5,1.9-6.3
			c0-2.7-0.6-4.7-1.9-6.2c-1.3-1.4-2.8-2.2-4.7-2.2c-1.9,0-3.5,0.7-4.7,2.2C585.8,153.3,585.1,155.3,585.1,158 M577.7,157.6
			c0-2.4,0.6-4.7,1.8-7c1.2-2.2,2.9-3.9,5-5.1c2.2-1.2,4.6-1.8,7.2-1.8c4.1,0,7.5,1.3,10.1,4c2.6,2.7,3.9,6.1,3.9,10.1
			c0,4.1-1.3,7.5-4,10.2c-2.7,2.7-6,4.1-10,4.1c-2.5,0-4.9-0.6-7.1-1.7c-2.3-1.1-4-2.8-5.2-5C578.3,163.4,577.7,160.8,577.7,157.6z
			 M547.7,163.9l7.2-1.1c0.3,1.4,0.9,2.5,1.9,3.2c0.9,0.7,2.2,1.1,3.9,1.1c1.9,0,3.3-0.3,4.2-1c0.6-0.5,1-1.1,1-1.9
			c0-0.6-0.2-1-0.5-1.4c-0.4-0.3-1.2-0.7-2.4-0.9c-5.8-1.3-9.5-2.5-11.1-3.5c-2.2-1.5-3.2-3.5-3.2-6.1c0-2.4,0.9-4.3,2.8-5.9
			c1.9-1.6,4.8-2.4,8.7-2.4c3.7,0,6.5,0.6,8.3,1.8c1.8,1.2,3.1,3,3.7,5.4l-6.8,1.3c-0.3-1.1-0.8-1.9-1.7-2.4c-0.8-0.6-2-0.8-3.5-0.8
			c-1.9,0-3.3,0.3-4.1,0.8c-0.5,0.4-0.8,0.9-0.8,1.5c0,0.5,0.2,0.9,0.7,1.3c0.6,0.5,2.9,1.2,6.7,2c3.8,0.9,6.5,1.9,8,3.2
			c1.5,1.3,2.3,3.1,2.3,5.4c0,2.5-1,4.6-3.1,6.4c-2.1,1.8-5.2,2.7-9.3,2.7c-3.7,0-6.6-0.8-8.8-2.3
			C549.7,168.5,548.3,166.5,547.7,163.9z M518.4,163.9l7.2-1.1c0.3,1.4,0.9,2.5,1.9,3.2c0.9,0.7,2.3,1.1,3.9,1.1
			c1.9,0,3.3-0.3,4.2-1c0.6-0.5,1-1.1,1-1.9c0-0.6-0.2-1-0.5-1.4c-0.4-0.3-1.2-0.7-2.4-0.9c-5.8-1.3-9.5-2.5-11.1-3.5
			c-2.2-1.5-3.2-3.5-3.2-6.1c0-2.4,0.9-4.3,2.8-5.9c1.9-1.6,4.8-2.4,8.7-2.4c3.7,0,6.5,0.6,8.3,1.8c1.8,1.2,3.1,3,3.7,5.4l-6.8,1.3
			c-0.3-1.1-0.8-1.9-1.7-2.4c-0.8-0.6-2-0.8-3.5-0.8c-1.9,0-3.3,0.3-4.1,0.8c-0.5,0.4-0.8,0.9-0.8,1.5c0,0.5,0.2,0.9,0.7,1.3
			c0.6,0.5,2.9,1.2,6.7,2c3.8,0.9,6.5,1.9,8,3.2c1.5,1.3,2.3,3.1,2.3,5.4c0,2.5-1,4.6-3.1,6.4c-2.1,1.8-5.2,2.7-9.3,2.7
			c-3.7,0-6.6-0.8-8.8-2.3C520.5,168.5,519.1,166.5,518.4,163.9z M494.6,158c0,2.7,0.6,4.8,1.9,6.2c1.3,1.4,2.9,2.2,4.7,2.2
			c1.9,0,3.5-0.7,4.7-2.2c1.3-1.4,1.9-3.5,1.9-6.3c0-2.7-0.6-4.7-1.9-6.2c-1.3-1.4-2.8-2.2-4.7-2.2c-1.9,0-3.5,0.7-4.7,2.2
			C495.3,153.3,494.6,155.3,494.6,158z M487.2,157.6c0-2.4,0.6-4.7,1.8-7c1.2-2.2,2.9-3.9,5-5.1c2.2-1.2,4.6-1.8,7.2-1.8
			c4.1,0,7.5,1.3,10.1,4c2.6,2.7,3.9,6.1,3.9,10.1c0,4.1-1.3,7.5-4,10.2c-2.7,2.7-6,4.1-10,4.1c-2.5,0-4.9-0.6-7.1-1.7
			c-2.3-1.1-4-2.8-5.2-5C487.8,163.4,487.2,160.8,487.2,157.6z M475.4,171.6h-7.2v-27.2h6.7v3.9c1.1-1.8,2.2-3,3.1-3.6
			c0.9-0.6,2-0.9,3.1-0.9c1.6,0,3.2,0.5,4.7,1.4l-2.2,6.3c-1.2-0.8-2.3-1.2-3.4-1.2c-1,0-1.9,0.3-2.6,0.8c-0.7,0.6-1.3,1.6-1.7,3
			c-0.4,1.5-0.6,4.5-0.6,9.1V171.6z M445.1,157.8v-6.3h16.4v15c-1.6,1.5-3.9,2.9-6.9,4.1c-3,1.2-6.1,1.8-9.2,1.8
			c-3.9,0-7.4-0.8-10.3-2.5c-2.9-1.7-5.1-4-6.6-7.1c-1.5-3.1-2.2-6.4-2.2-10c0-3.9,0.8-7.4,2.5-10.4c1.6-3,4-5.4,7.2-7
			c2.4-1.3,5.4-1.9,9-1.9c4.7,0,8.3,1,10.9,2.9c2.6,2,4.3,4.7,5.1,8.1l-7.5,1.4c-0.5-1.8-1.5-3.3-3-4.4c-1.5-1.1-3.3-1.6-5.5-1.6
			c-3.3,0-6,1-7.9,3.2c-2,2.1-2.9,5.2-2.9,9.4c0,4.5,1,7.8,3,10c2,2.2,4.6,3.3,7.8,3.3c1.6,0,3.2-0.3,4.8-0.9c1.6-0.6,3-1.4,4.1-2.3
			v-4.8H445.1z M386.6,158c0,2.7,0.6,4.8,1.9,6.2c1.3,1.4,2.9,2.2,4.7,2.2s3.5-0.7,4.7-2.2c1.3-1.4,1.9-3.5,1.9-6.3
			c0-2.7-0.6-4.7-1.9-6.2c-1.3-1.4-2.8-2.2-4.7-2.2s-3.5,0.7-4.7,2.2C387.3,153.3,386.6,155.3,386.6,158z M379.2,157.6
			c0-2.4,0.6-4.7,1.8-7c1.2-2.2,2.9-3.9,5-5.1c2.2-1.2,4.6-1.8,7.2-1.8c4.1,0,7.5,1.3,10.1,4c2.6,2.7,3.9,6.1,3.9,10.1
			c0,4.1-1.3,7.5-4,10.2c-2.7,2.7-6,4.1-10,4.1c-2.5,0-4.9-0.6-7.1-1.7c-2.3-1.1-4-2.8-5.2-5C379.8,163.4,379.2,160.8,379.2,157.6z
			 M375.9,144.4v5.7H371v11c0,2.2,0,3.5,0.1,3.9c0.1,0.4,0.3,0.7,0.6,0.9c0.3,0.2,0.7,0.4,1.2,0.4c0.7,0,1.6-0.2,2.9-0.7l0.6,5.6
			c-1.7,0.7-3.6,1.1-5.7,1.1c-1.3,0-2.5-0.2-3.5-0.6c-1-0.4-1.8-1-2.3-1.7c-0.5-0.7-0.8-1.6-1-2.8c-0.1-0.8-0.2-2.5-0.2-5.1v-11.9
			h-3.3v-5.7h3.3V139l7.2-4.2v9.6H375.9z M349.2,158.6c-0.9,0.3-2.4,0.7-4.4,1.1c-2,0.4-3.3,0.8-3.9,1.3c-0.9,0.7-1.4,1.5-1.4,2.5
			c0,1,0.4,1.9,1.1,2.6c0.8,0.7,1.7,1.1,2.9,1.1c1.3,0,2.5-0.4,3.7-1.3c0.9-0.6,1.4-1.4,1.7-2.4c0.2-0.6,0.3-1.8,0.3-3.5V158.6z
			 M339.6,152.7l-6.5-1.2c0.7-2.6,2-4.6,3.8-5.8c1.8-1.3,4.5-1.9,8-1.9c3.2,0,5.6,0.4,7.2,1.1c1.6,0.8,2.7,1.7,3.3,2.9
			c0.6,1.2,1,3.3,1,6.5l-0.1,8.4c0,2.4,0.1,4.2,0.4,5.3c0.2,1.1,0.7,2.4,1.3,3.7h-7.1c-0.2-0.5-0.4-1.2-0.7-2.1
			c-0.1-0.4-0.2-0.7-0.3-0.8c-1.2,1.2-2.5,2.1-3.9,2.7c-1.4,0.6-2.9,0.9-4.5,0.9c-2.8,0-5-0.8-6.6-2.3c-1.6-1.5-2.4-3.4-2.4-5.8
			c0-1.5,0.4-2.9,1.1-4.1c0.7-1.2,1.8-2.1,3.1-2.8c1.3-0.6,3.2-1.2,5.7-1.7c3.4-0.6,5.7-1.2,7-1.8v-0.7c0-1.4-0.3-2.4-1-3
			c-0.7-0.6-2-0.9-3.9-0.9c-1.3,0-2.3,0.3-3,0.8C340.6,150.6,340,151.4,339.6,152.7z M290.4,171.6V134h11.4l6.8,25.7l6.7-25.7h11.4
			v37.6h-7V142l-7.5,29.6h-7.3l-7.4-29.6v29.6H290.4z M262.8,155.7c-0.1-2.1-0.6-3.7-1.6-4.8c-1-1.1-2.3-1.6-3.7-1.6
			c-1.6,0-2.9,0.6-3.9,1.7c-1,1.1-1.5,2.7-1.5,4.7H262.8z M262.4,163l7.2,1.2c-0.9,2.6-2.4,4.6-4.4,6c-2,1.4-4.5,2.1-7.5,2.1
			c-4.7,0-8.2-1.5-10.5-4.6c-1.8-2.5-2.7-5.6-2.7-9.4c0-4.5,1.2-8.1,3.5-10.6c2.4-2.6,5.3-3.8,8.9-3.8c4.1,0,7.2,1.3,9.6,4
			c2.3,2.7,3.5,6.8,3.4,12.3h-18.1c0.1,2.1,0.6,3.8,1.7,5c1.1,1.2,2.5,1.8,4.2,1.8c1.1,0,2.1-0.3,2.8-0.9
			C261.4,165.3,262,164.3,262.4,163z M220.3,157.4c0,2.9,0.4,5,1.2,6.3c1.2,1.9,2.8,2.8,4.9,2.8c1.7,0,3.1-0.7,4.2-2.1
			c1.2-1.4,1.7-3.5,1.7-6.3c0-3.1-0.6-5.4-1.7-6.8c-1.1-1.4-2.6-2.1-4.3-2.1c-1.7,0-3.1,0.7-4.3,2
			C220.9,152.7,220.3,154.7,220.3,157.4z M239.5,171.6h-6.7v-4c-1.1,1.6-2.4,2.7-3.9,3.5c-1.5,0.8-3,1.1-4.6,1.1
			c-3.1,0-5.8-1.3-8-3.8c-2.2-2.5-3.3-6-3.3-10.5c0-4.6,1.1-8.1,3.3-10.5c2.2-2.4,4.9-3.6,8.2-3.6c3,0,5.7,1.3,7.9,3.8V134h7.2
			V171.6z M731.3,117.7V80.1h7.2v37.6H731.3z M717.1,104.6c-0.9,0.3-2.4,0.7-4.4,1.1c-2,0.4-3.3,0.8-3.9,1.3
			c-0.9,0.7-1.4,1.5-1.4,2.5c0,1,0.4,1.9,1.1,2.6c0.8,0.7,1.7,1.1,2.9,1.1c1.3,0,2.5-0.4,3.7-1.3c0.9-0.6,1.4-1.4,1.7-2.4
			c0.2-0.6,0.3-1.8,0.3-3.5V104.6z M707.5,98.8l-6.5-1.2c0.7-2.6,2-4.6,3.8-5.8c1.8-1.3,4.5-1.9,8-1.9c3.2,0,5.6,0.4,7.2,1.1
			c1.6,0.8,2.7,1.7,3.3,2.9c0.6,1.2,1,3.3,1,6.5l-0.1,8.4c0,2.4,0.1,4.2,0.3,5.3c0.2,1.1,0.7,2.4,1.3,3.7h-7.1
			c-0.2-0.5-0.4-1.2-0.7-2.1c-0.1-0.4-0.2-0.7-0.3-0.8c-1.2,1.2-2.5,2.1-3.9,2.7c-1.4,0.6-2.9,0.9-4.5,0.9c-2.8,0-5-0.8-6.6-2.3
			c-1.6-1.5-2.4-3.4-2.4-5.8c0-1.5,0.4-2.9,1.1-4.1c0.7-1.2,1.8-2.1,3.1-2.8c1.3-0.6,3.2-1.2,5.7-1.7c3.4-0.6,5.7-1.2,7-1.8v-0.7
			c0-1.4-0.3-2.4-1-3c-0.7-0.6-2-0.9-3.9-0.9c-1.3,0-2.3,0.3-3,0.8C708.5,96.6,707.9,97.5,707.5,98.8z M688.5,117.7h-7.2V90.5h6.7
			v3.9c1.1-1.8,2.2-3,3.1-3.6c0.9-0.6,2-0.9,3.1-0.9c1.6,0,3.2,0.5,4.7,1.4l-2.2,6.3c-1.2-0.8-2.3-1.2-3.4-1.2c-1,0-1.9,0.3-2.6,0.8
			c-0.7,0.6-1.3,1.6-1.7,3c-0.4,1.5-0.6,4.5-0.6,9.1V117.7z M668.6,101.8c-0.1-2.1-0.6-3.7-1.6-4.8c-1-1.1-2.3-1.6-3.7-1.6
			c-1.6,0-2.9,0.6-3.9,1.7c-1,1.1-1.5,2.7-1.5,4.7H668.6z M668.2,109l7.2,1.2c-0.9,2.6-2.4,4.6-4.4,6c-2,1.4-4.5,2.1-7.5,2.1
			c-4.7,0-8.2-1.5-10.5-4.6c-1.8-2.5-2.7-5.6-2.7-9.4c0-4.5,1.2-8.1,3.5-10.6c2.4-2.6,5.3-3.8,8.9-3.8c4.1,0,7.2,1.3,9.6,4
			c2.3,2.7,3.5,6.8,3.4,12.3h-18.1c0.1,2.1,0.6,3.8,1.7,5c1.1,1.2,2.5,1.8,4.2,1.8c1.1,0,2.1-0.3,2.8-0.9
			C667.2,111.4,667.8,110.4,668.2,109z M626.1,103.5c0,2.9,0.4,5,1.2,6.3c1.2,1.9,2.8,2.8,4.9,2.8c1.7,0,3.1-0.7,4.2-2.1
			c1.2-1.4,1.7-3.5,1.7-6.3c0-3.1-0.6-5.4-1.7-6.8c-1.1-1.4-2.6-2.1-4.3-2.1c-1.7,0-3.1,0.7-4.3,2
			C626.7,98.8,626.1,100.8,626.1,103.5z M645.3,117.7h-6.7v-4c-1.1,1.6-2.4,2.7-3.9,3.5c-1.5,0.8-3,1.1-4.6,1.1
			c-3.1,0-5.8-1.3-8-3.8c-2.2-2.5-3.3-6-3.3-10.5c0-4.6,1.1-8.1,3.3-10.5s4.9-3.6,8.2-3.6c3,0,5.7,1.3,7.9,3.8V80.1h7.2V117.7z
			 M607.3,101.8c-0.1-2.1-0.6-3.7-1.6-4.8c-1-1.1-2.3-1.6-3.7-1.6c-1.6,0-2.9,0.6-3.9,1.7c-1,1.1-1.5,2.7-1.5,4.7H607.3z M606.9,109
			l7.2,1.2c-0.9,2.6-2.4,4.6-4.4,6c-2,1.4-4.5,2.1-7.5,2.1c-4.7,0-8.2-1.5-10.5-4.6c-1.8-2.5-2.7-5.6-2.7-9.4
			c0-4.5,1.2-8.1,3.5-10.6c2.4-2.6,5.3-3.8,8.9-3.8c4.1,0,7.2,1.3,9.6,4c2.3,2.7,3.5,6.8,3.4,12.3h-18.1c0.1,2.1,0.6,3.8,1.7,5
			c1.1,1.2,2.5,1.8,4.2,1.8c1.1,0,2.1-0.3,2.8-0.9C605.9,111.4,606.5,110.4,606.9,109z M559.1,117.7V80.1h25.8v6.4h-18.2v8.9h15.7
			v6.4h-15.7v16H559.1z M531.4,101.8c-0.1-2.1-0.6-3.7-1.6-4.8c-1-1.1-2.3-1.6-3.7-1.6c-1.6,0-2.9,0.6-3.9,1.7
			c-1,1.1-1.5,2.7-1.5,4.7H531.4z M531,109l7.2,1.2c-0.9,2.6-2.4,4.6-4.4,6c-2,1.4-4.5,2.1-7.5,2.1c-4.7,0-8.2-1.5-10.5-4.6
			c-1.8-2.5-2.7-5.6-2.7-9.4c0-4.5,1.2-8.1,3.5-10.6c2.4-2.6,5.3-3.8,8.9-3.8c4.1,0,7.2,1.3,9.6,4c2.3,2.7,3.5,6.8,3.4,12.3h-18.1
			c0.1,2.1,0.6,3.8,1.7,5c1.1,1.2,2.5,1.8,4.2,1.8c1.1,0,2.1-0.3,2.8-0.9C530,111.4,530.6,110.4,531,109z M488.9,103.5
			c0,2.9,0.4,5,1.2,6.3c1.2,1.9,2.8,2.8,4.9,2.8c1.7,0,3.1-0.7,4.2-2.1c1.2-1.4,1.7-3.5,1.7-6.3c0-3.1-0.6-5.4-1.7-6.8
			c-1.1-1.4-2.6-2.1-4.3-2.1c-1.7,0-3.1,0.7-4.3,2C489.5,98.8,488.9,100.8,488.9,103.5z M508.1,117.7h-6.7v-4
			c-1.1,1.6-2.4,2.7-3.9,3.5c-1.5,0.8-3,1.1-4.6,1.1c-3.1,0-5.8-1.3-8-3.8c-2.2-2.5-3.3-6-3.3-10.5c0-4.6,1.1-8.1,3.3-10.5
			s4.9-3.6,8.2-3.6c3,0,5.7,1.3,7.9,3.8V80.1h7.2V117.7z M469,104.6c-0.9,0.3-2.4,0.7-4.4,1.1c-2,0.4-3.3,0.8-3.9,1.3
			c-0.9,0.7-1.4,1.5-1.4,2.5c0,1,0.4,1.9,1.1,2.6c0.8,0.7,1.7,1.1,2.9,1.1c1.3,0,2.5-0.4,3.7-1.3c0.9-0.6,1.4-1.4,1.7-2.4
			c0.2-0.6,0.3-1.8,0.3-3.5V104.6z M459.3,98.8l-6.5-1.2c0.7-2.6,2-4.6,3.8-5.8c1.8-1.3,4.5-1.9,8-1.9c3.2,0,5.6,0.4,7.2,1.1
			c1.6,0.8,2.7,1.7,3.3,2.9c0.6,1.2,1,3.3,1,6.5l-0.1,8.4c0,2.4,0.1,4.2,0.3,5.3c0.2,1.1,0.7,2.4,1.3,3.7h-7.1
			c-0.2-0.5-0.4-1.2-0.7-2.1c-0.1-0.4-0.2-0.7-0.3-0.8c-1.2,1.2-2.5,2.1-3.9,2.7c-1.4,0.6-2.9,0.9-4.5,0.9c-2.8,0-5-0.8-6.6-2.3
			c-1.6-1.5-2.4-3.4-2.4-5.8c0-1.5,0.4-2.9,1.1-4.1c0.7-1.2,1.8-2.1,3.1-2.8s3.2-1.2,5.7-1.7c3.4-0.6,5.7-1.2,7-1.8v-0.7
			c0-1.4-0.3-2.4-1-3c-0.7-0.6-2-0.9-3.9-0.9c-1.3,0-2.3,0.3-3,0.8C460.4,96.6,459.8,97.5,459.3,98.8z M427.6,103.5
			c0,2.9,0.4,5,1.2,6.3c1.2,1.9,2.8,2.8,4.9,2.8c1.7,0,3.1-0.7,4.2-2.1c1.2-1.4,1.7-3.5,1.7-6.3c0-3.1-0.6-5.4-1.7-6.8
			c-1.1-1.4-2.6-2.1-4.3-2.1c-1.7,0-3.1,0.7-4.3,2C428.2,98.8,427.6,100.8,427.6,103.5z M446.8,117.7h-6.7v-4
			c-1.1,1.6-2.4,2.7-3.9,3.5c-1.5,0.8-3,1.1-4.6,1.1c-3.1,0-5.8-1.3-8-3.8c-2.2-2.5-3.3-6-3.3-10.5c0-4.6,1.1-8.1,3.3-10.5
			c2.2-2.4,4.9-3.6,8.2-3.6c3,0,5.7,1.3,7.9,3.8V80.1h7.2V117.7z M407.3,117.7V90.5h7.2v27.2H407.3z M407.3,86.8v-6.7h7.2v6.7H407.3
			z M375.5,109.9l7.2-1.1c0.3,1.4,0.9,2.5,1.9,3.2c0.9,0.7,2.2,1.1,3.9,1.1c1.9,0,3.3-0.3,4.2-1c0.6-0.5,1-1.1,1-1.9
			c0-0.6-0.2-1-0.5-1.4c-0.4-0.3-1.2-0.7-2.4-0.9c-5.8-1.3-9.5-2.5-11.1-3.5c-2.2-1.5-3.2-3.5-3.2-6.1c0-2.4,0.9-4.3,2.8-5.9
			c1.9-1.6,4.8-2.4,8.7-2.4c3.7,0,6.5,0.6,8.3,1.8c1.8,1.2,3.1,3,3.7,5.4l-6.8,1.3c-0.3-1.1-0.8-1.9-1.7-2.4c-0.8-0.6-2-0.8-3.5-0.8
			c-1.9,0-3.3,0.3-4.1,0.8c-0.5,0.4-0.8,0.9-0.8,1.5c0,0.5,0.2,0.9,0.7,1.3c0.6,0.5,2.9,1.2,6.7,2c3.8,0.9,6.5,1.9,8,3.2
			c1.5,1.3,2.3,3.1,2.3,5.4c0,2.5-1,4.6-3.1,6.4c-2.1,1.8-5.2,2.7-9.3,2.7c-3.7,0-6.6-0.8-8.8-2.3
			C377.6,114.6,376.2,112.5,375.5,109.9z M364.5,117.7h-7.2V90.5h6.7v3.9c1.1-1.8,2.2-3,3.1-3.6c0.9-0.6,2-0.9,3.1-0.9
			c1.6,0,3.2,0.5,4.7,1.4l-2.2,6.3c-1.2-0.8-2.3-1.2-3.4-1.2c-1,0-1.9,0.3-2.6,0.8c-0.7,0.6-1.3,1.6-1.7,3c-0.4,1.5-0.6,4.5-0.6,9.1
			V117.7z M344.6,101.8c-0.1-2.1-0.6-3.7-1.6-4.8c-1-1.1-2.3-1.6-3.7-1.6c-1.6,0-2.9,0.6-3.9,1.7c-1,1.1-1.5,2.7-1.5,4.7H344.6z
			 M344.2,109l7.2,1.2c-0.9,2.6-2.4,4.6-4.4,6c-2,1.4-4.5,2.1-7.5,2.1c-4.7,0-8.2-1.5-10.5-4.6c-1.8-2.5-2.7-5.6-2.7-9.4
			c0-4.5,1.2-8.1,3.5-10.6c2.4-2.6,5.3-3.8,8.9-3.8c4.1,0,7.2,1.3,9.6,4c2.3,2.7,3.5,6.8,3.4,12.3h-18.1c0.1,2.1,0.6,3.8,1.7,5
			c1.1,1.2,2.5,1.8,4.2,1.8c1.1,0,2.1-0.3,2.8-0.9C343.2,111.4,343.8,110.4,344.2,109z M306.7,117.7l-11-27.2h7.6l5.1,13.9l1.5,4.6
			c0.4-1.2,0.6-2,0.7-2.3c0.2-0.8,0.5-1.5,0.8-2.3l5.2-13.9h7.4l-10.8,27.2H306.7z M284.6,117.7V90.5h7.2v27.2H284.6z M284.6,86.8
			v-6.7h7.2v6.7H284.6z M277.3,117.7h-7.2v-13.9c0-2.9-0.2-4.8-0.5-5.7c-0.3-0.9-0.8-1.5-1.5-2c-0.7-0.5-1.5-0.7-2.5-0.7
			c-1.3,0-2.4,0.3-3.4,1c-1,0.7-1.7,1.6-2,2.7c-0.4,1.1-0.6,3.2-0.6,6.3v12.3h-7.2V90.5h6.7v4c2.4-3.1,5.4-4.6,9-4.6
			c1.6,0,3,0.3,4.4,0.9c1.3,0.6,2.3,1.3,3,2.2c0.7,0.9,1.1,1.9,1.4,3c0.3,1.1,0.4,2.7,0.4,4.8V117.7z M214.6,80.1h7.6v20.4
			c0,3.2,0.1,5.3,0.3,6.3c0.3,1.5,1.1,2.8,2.3,3.7c1.2,0.9,2.9,1.4,5,1.4c2.2,0,3.8-0.4,4.9-1.3c1.1-0.9,1.8-2,2-3.2
			c0.2-1.3,0.3-3.4,0.3-6.4V80.1h7.6v19.8c0,4.5-0.2,7.7-0.6,9.6c-0.4,1.9-1.2,3.4-2.3,4.7c-1.1,1.3-2.6,2.3-4.4,3.1
			c-1.8,0.8-4.3,1.1-7.2,1.1c-3.6,0-6.3-0.4-8.2-1.2c-1.9-0.8-3.3-1.9-4.4-3.2c-1.1-1.3-1.8-2.7-2.1-4.2c-0.5-2.2-0.7-5.3-0.7-9.5
			V80.1z"/>
	</g>
</g>
<g id="Camada_2">
</g>
</svg>
