<?xml version="1.0" encoding="utf-8"?>
<!-- Generator: Adobe Illustrator 23.0.0, SVG Export Plug-In . SVG Version: 6.00 Build 0)  -->
<svg version="1.1" id="Camada_1" xmlns="http://www.w3.org/2000/svg" xmlns:xlink="http://www.w3.org/1999/xlink" x="0px" y="0px"
	 viewBox="0 0 800 800" style="enable-background:new 0 0 800 800;" xml:space="preserve">
<style type="text/css">
	.st0{fill:#FFFFFF;}
	.st1{fill:#1D3851;}
	.st2{fill:#3F9929;}
	.st3{fill:#3366CC;}
	.st4{fill-rule:evenodd;clip-rule:evenodd;fill:#FFFFFF;}
	.st5{fill-rule:evenodd;clip-rule:evenodd;fill:#312782;}
	.st6{fill:#312782;}
	.st7{fill:#1D1D1B;}
	.st8{fill-rule:evenodd;clip-rule:evenodd;fill:#1D1D1B;}
</style>
<g>
	<path class="st4" d="M400,250.9c29.6,0,53.5,24,53.5,53.5c0,29.6-24,53.5-53.5,53.5c-29.6,0-53.5-24-53.5-53.5
		C346.5,274.8,370.4,250.9,400,250.9 M398.5,285.8c9.9,0,17.8,8,17.8,17.9c0,9.9-8,17.8-17.8,17.8c-9.9,0-17.8-8-17.8-17.8
		C380.7,293.8,388.7,285.8,398.5,285.8z"/>
	<path class="st4" d="M275.1,405.4c-22.3-27.6-35.7-62.7-35.7-100.9c0-38.2,13.4-73.4,35.7-100.9V405.4z M500.9,429.4
		c-27.6,22.3-62.7,35.7-100.9,35.7s-73.4-13.4-100.9-35.7H500.9z M524.9,203.5c22.3,27.6,35.7,62.7,35.7,100.9
		c0,38.2-13.4,73.4-35.7,100.9V203.5z M400,143.8c38.2,0,73.4,13.4,100.9,35.7H299.1C326.6,157.2,361.8,143.8,400,143.8z"/>
	<path class="st4" d="M400,215.2c49.3,0,89.2,40,89.2,89.2c0,49.3-40,89.2-89.2,89.2s-89.2-40-89.2-89.2
		C310.8,255.1,350.7,215.2,400,215.2 M310.8,215.2h178.5v178.5H310.8V215.2z"/>
	<path class="st4" d="M400,108.1c108.4,0,196.3,87.9,196.3,196.3c0,108.4-87.9,196.3-196.3,196.3s-196.3-87.9-196.3-196.3
		C203.7,196,291.6,108.1,400,108.1 M400,72.4c128.1,0,232,103.9,232,232c0,128.1-103.9,232-232,232c-128.1,0-232-103.9-232-232
		C168,176.3,271.9,72.4,400,72.4z"/>
	<path class="st0" d="M530.2,617.3H632v26.8h-34.2v81.6h-33.5v-81.6h-34.1V617.3z M394.6,617.3h44l17,65.9l16.9-65.9h43.9v108.4
		h-27.4v-82.6l-21.2,82.6h-24.7L422,643.1v82.6h-27.4V617.3z M294.1,617.3h82.8v23.3h-49.2v18.9h42v21.9h-42v44.3h-33.6V617.3z
		 M238.4,617.3h33.4V682c0,6.4-1,12.4-3,18.1c-2,5.7-5.1,10.7-9.4,14.9c-4.3,4.3-8.7,7.2-13.4,9c-6.5,2.4-14.3,3.6-23.4,3.6
		c-5.3,0-11-0.3-17.3-1.1c-6.2-0.7-11.4-2.2-15.6-4.4c-4.2-2.2-8-5.3-11.5-9.4c-3.5-4-5.9-8.2-7.1-12.5c-2.1-6.9-3.1-13-3.1-18.3
		v-64.6h33.4v66.2c0,5.9,1.6,10.5,4.9,13.9c3.3,3.3,7.8,5,13.7,5c5.7,0,10.3-1.6,13.6-4.9c3.2-3.3,4.9-7.9,4.9-13.9V617.3z"/>
</g>
</svg>
