<?xml version="1.0" encoding="utf-8"?>
<!-- Generator: Adobe Illustrator 23.0.1, SVG Export Plug-In . SVG Version: 6.00 Build 0)  -->
<svg version="1.1" xmlns="http://www.w3.org/2000/svg" xmlns:xlink="http://www.w3.org/1999/xlink" x="0px" y="0px"
	 viewBox="0 0 756.4 353.6" style="enable-background:new 0 0 756.4 353.6;" xml:space="preserve">
<style type="text/css">
	.st0{fill:#FFFFFF;}
	.st1{fill:#1D3851;}
	.st2{fill:#3F9929;}
	.st3{fill:#3366CC;}
	.st4{fill-rule:evenodd;clip-rule:evenodd;fill:#FFFFFF;}
	.st5{fill-rule:evenodd;clip-rule:evenodd;fill:#312782;}
	.st6{fill:#312782;}
	.st7{fill:#1D1D1B;}
	.st8{fill-rule:evenodd;clip-rule:evenodd;fill:#1D1D1B;}
</style>
<g id="Camada_1">
	<g>
		<g>
			<path class="st0" d="M334.8,158.8c0.1,1.6,0.4,3.3,0.9,4.9c0.5,1.6,1.5,3.2,2.8,4.8c1.4,1.5,3.4,2.8,6,3.8c2.6,1,5.9,1.5,9.9,1.5
				c2.6,0,5-0.2,7.2-0.5c2.2-0.3,4.3-1,6.1-1.9c1.8-0.9,3.3-2.2,4.4-3.7c1.1-1.6,1.6-3.6,1.6-5.9c0-3.3-1.3-5.7-3.9-7.2
				c-2.6-1.5-6.9-2.9-12.9-4.3l-9.9-2.3c-5-1.2-9-2.3-12.1-3.3c-3.1-1-5.9-2.4-8.6-4.3c-2.7-1.9-4.8-4.4-6.4-7.6s-2.4-7.3-2.4-12.1
				c0-3.1,0.5-6.2,1.5-9.4c1-3.1,2.8-6.2,5.4-9.1c2.6-2.9,6.3-5.3,11-7.2c4.8-1.9,10.7-2.8,17.8-2.8c6.7,0,12.4,1,17.2,2.9
				c4.7,1.9,8.5,4.4,11.2,7.5c2.8,3.1,4.7,6.3,5.9,9.7c1.2,3.4,1.8,6.7,1.8,9.9h-18.6c-0.2-1.6-0.5-3-1-4.5
				c-0.5-1.4-1.4-2.9-2.6-4.3c-1.3-1.5-3.2-2.7-5.7-3.7c-2.5-1-5.7-1.5-9.7-1.5c-2,0-3.9,0.2-5.8,0.6c-1.9,0.4-3.6,1-5.2,1.9
				c-1.6,0.9-2.8,2-3.7,3.5c-1,1.5-1.4,3.2-1.4,5.2c0,1.7,0.3,3.2,0.9,4.3c0.6,1.2,1.4,2.1,2.4,2.8c1,0.7,2,1.2,3,1.6
				c1,0.4,2.2,0.7,3.5,1l22.6,5.6c3.6,0.9,6.8,1.9,9.6,3c2.8,1.2,5.3,2.7,7.5,4.5c2.2,1.9,4,4.2,5.3,7.1c1.3,2.9,1.9,6.3,1.9,10.3
				c0,6.5-1.4,11.8-4.2,16c-2.8,4.2-6.2,7.3-10.3,9.3c-4,2-8,3.4-11.8,4.1c-3.8,0.7-7.3,1-10.3,1c-7.9,0-14.6-1-19.9-3
				c-5.3-2-9.4-4.6-12.3-7.8c-2.8-3.1-4.8-6.5-5.9-10c-1.1-3.5-1.6-6.9-1.6-10.3H334.8z"/>
			<path class="st0" d="M475.3,111h-49.2v19.5h45.2v16.4h-45.2v24h51.4v16.4h-70.4V94.6h68.2V111z"/>
			<path class="st0" d="M532.7,187.3h-19.4V111h-28V94.6h75.5V111h-28V187.3z"/>
			<path class="st0" d="M640.5,111h-49.2v19.5h45.2v16.4h-45.2v24h51.4v16.4h-70.4V94.6h68.2V111z"/>
			<path class="st0" d="M717.6,124.9c-0.5-2.1-1.1-3.9-1.9-5.5c-0.7-1.6-1.8-3.2-3.2-4.8c-1.4-1.6-3.4-3-5.9-4.1
				c-2.5-1.1-5.7-1.6-9.5-1.6c-2.6,0-5.2,0.5-7.8,1.5c-2.6,1-5.1,2.7-7.4,5.1c-2.3,2.4-4.2,5.8-5.6,10.1c-1.4,4.3-2.1,9.6-2.1,15.8
				c0,4.3,0.5,8.4,1.4,12.1c0.9,3.8,2.3,7.2,4.1,10.1c1.9,2.9,4.2,5.2,7.2,6.9c2.9,1.7,6.4,2.5,10.3,2.5c5.4,0,9.9-1.5,13.5-4.5
				c3.6-3,5.9-7.3,7-13H737c-2,10.5-6.4,18.8-13.2,25c-6.8,6.2-15.9,9.2-27.1,9.2c-12.8,0-23-4.2-30.8-12.7
				c-7.8-8.4-11.6-20.5-11.6-36.1c0-7.9,1.1-15,3.2-21.1c2.2-6.2,5.2-11.3,9-15.4c3.9-4.1,8.4-7.2,13.6-9.3
				c5.2-2.1,10.8-3.1,16.8-3.1c6.5,0,12.3,1,17.4,3c5,2,9.2,4.7,12.4,7.9c3.2,3.3,5.7,6.8,7.4,10.7c1.7,3.8,2.6,7.6,2.9,11.2H717.6z
				"/>
		</g>
		<g>
			<path class="st0" d="M325.8,230.5h2c0,1.7,0.6,3.1,1.6,4s2.6,1.4,4.5,1.4c1.7,0,3.1-0.4,4-1.2c1-0.8,1.5-1.8,1.5-3.2
				c0-1.3-0.3-2.2-1-2.9c-0.7-0.7-2.1-1.2-4.1-1.8l-2.1-0.5c-2.2-0.6-3.8-1.3-4.7-2.2c-0.9-0.9-1.3-2.1-1.3-3.7c0-1.8,0.7-3.2,2-4.3
				c1.3-1.1,3-1.6,5.2-1.6c2.3,0,4.1,0.6,5.4,1.8c1.3,1.2,2,2.8,2,4.9h-2c0-1.6-0.5-2.8-1.5-3.6c-0.9-0.8-2.3-1.3-4-1.3
				c-1.6,0-2.9,0.4-3.7,1.1s-1.3,1.7-1.3,3.1c0,1,0.3,1.8,0.9,2.4c0.6,0.6,1.5,1,2.9,1.4l2.6,0.6c2.5,0.6,4.3,1.4,5.3,2.4
				c1,1,1.5,2.3,1.5,4c0,2-0.7,3.5-2,4.6c-1.3,1.1-3.2,1.7-5.5,1.7c-2.6,0-4.6-0.6-6-1.8c-1.4-1.2-2.1-3-2.1-5.3V230.5z"/>
			<path class="st0" d="M360.6,237.1v-21.9h14.4v1.8h-12.3v8h11.3v1.7h-11.3v8.6h12.7v1.8H360.6z"/>
			<path class="st0" d="M409.7,229.9h2c-0.2,2.4-1,4.3-2.6,5.7c-1.5,1.4-3.6,2.1-6.2,2.1c-2.9,0-5.3-1-7-3.1
				c-1.7-2.1-2.6-4.9-2.6-8.5c0-3.6,0.9-6.4,2.6-8.4c1.7-2,4.1-3.1,7-3.1c2.5,0,4.5,0.6,6,1.9c1.5,1.3,2.4,3,2.5,5.1h-2
				c-0.2-1.6-0.8-2.9-2-3.8s-2.7-1.4-4.5-1.4c-2.4,0-4.2,0.8-5.5,2.5c-1.3,1.7-2,4.1-2,7.1c0,3.1,0.7,5.5,2,7.3
				c1.3,1.7,3.2,2.6,5.6,2.6c1.9,0,3.5-0.5,4.7-1.6C408.9,233.3,409.5,231.8,409.7,229.9z"/>
			<path class="st0" d="M430.8,237.1v-21.9h7.3c1.7,0,2.9,0.1,3.7,0.2c0.8,0.1,1.4,0.4,2,0.7c0.9,0.5,1.5,1.2,2,2
				c0.5,0.9,0.7,1.8,0.7,2.9c0,1.4-0.3,2.5-0.9,3.4c-0.6,0.9-1.5,1.6-2.6,2c0.9,0.3,1.5,0.8,1.9,1.4c0.4,0.6,0.7,1.9,0.8,3.7
				l0.3,3.3c0,0.5,0.1,0.9,0.2,1.3c0.1,0.3,0.3,0.6,0.5,0.7v0.3h-2.2c-0.1-0.2-0.2-0.5-0.3-0.9c-0.1-0.4-0.1-0.8-0.2-1.4l-0.3-2.9
				c-0.1-2-0.5-3.3-1.1-3.8c-0.6-0.6-1.7-0.8-3.4-0.8h-6.4v9.8H430.8z M432.8,225.5h5.8c2,0,3.5-0.3,4.4-1s1.3-1.8,1.3-3.4
				c0-0.7-0.1-1.4-0.4-1.9s-0.7-1-1.2-1.4c-0.4-0.3-0.9-0.5-1.5-0.6s-1.5-0.2-2.8-0.2h-0.8h-4.9V225.5z"/>
			<path class="st0" d="M465.8,237.1v-21.9h14.4v1.8h-12.3v8h11.3v1.7h-11.3v8.6h12.7v1.8H465.8z"/>
			<path class="st0" d="M504.1,237.1V217h-6.8v-1.8H513v1.8h-6.8v20.1H504.1z"/>
			<path class="st0" d="M527.3,237.1l8.3-21.9h2.4l8.3,21.9h-2.1l-2.5-6.7h-9.8l-2.5,6.7H527.3z M532.5,228.6h8.5l-4.3-11.3
				L532.5,228.6z"/>
			<path class="st0" d="M563.9,237.1v-21.9h7.3c1.7,0,2.9,0.1,3.7,0.2c0.8,0.1,1.4,0.4,2,0.7c0.9,0.5,1.5,1.2,2,2s0.7,1.8,0.7,2.9
				c0,1.4-0.3,2.5-0.9,3.4s-1.5,1.6-2.6,2c0.9,0.3,1.5,0.8,1.9,1.4c0.4,0.6,0.7,1.9,0.8,3.7l0.3,3.3c0,0.5,0.1,0.9,0.2,1.3
				s0.3,0.6,0.5,0.7v0.3h-2.2c-0.1-0.2-0.2-0.5-0.3-0.9c-0.1-0.4-0.1-0.8-0.2-1.4l-0.3-2.9c-0.1-2-0.5-3.3-1.1-3.8
				c-0.6-0.6-1.7-0.8-3.4-0.8h-6.4v9.8H563.9z M565.9,225.5h5.8c2,0,3.5-0.3,4.4-1s1.3-1.8,1.3-3.4c0-0.7-0.1-1.4-0.4-1.9
				c-0.3-0.6-0.7-1-1.2-1.4c-0.4-0.3-0.9-0.5-1.5-0.6s-1.5-0.2-2.8-0.2h-0.8h-4.9V225.5z"/>
			<path class="st0" d="M599,237.1v-21.9h2.1v21.9H599z"/>
			<path class="st0" d="M618.8,237.1l8.3-21.9h2.4l8.3,21.9h-2.1l-2.5-6.7h-9.8l-2.5,6.7H618.8z M624.1,228.6h8.5l-4.3-11.3
				L624.1,228.6z"/>
			<path class="st0" d="M687.1,215.2h1.5c1.8,0,3.2,0.1,4.1,0.3c0.9,0.2,1.7,0.5,2.3,0.9c1.4,0.9,2.4,2.1,3.1,3.8s1.1,3.7,1.1,6
				c0,2.5-0.4,4.6-1.2,6.3c-0.8,1.7-1.9,3-3.4,3.8c-0.6,0.3-1.4,0.6-2.3,0.7c-0.9,0.1-2.3,0.2-4.2,0.2h-6v-21.9H687.1z M684,235.3
				h4.2c1.7,0,2.9-0.1,3.6-0.2c0.8-0.1,1.4-0.3,1.9-0.6c1.1-0.7,1.9-1.7,2.5-3s0.8-3.1,0.8-5.3c0-2.1-0.3-3.8-0.8-5.1
				s-1.3-2.4-2.4-3.1c-0.5-0.4-1.2-0.6-2-0.8c-0.8-0.1-2.1-0.2-4-0.2h-0.5H684V235.3z"/>
			<path class="st0" d="M718.5,237.1v-21.9h14.4v1.8h-12.3v8h11.3v1.7h-11.3v8.6h12.7v1.8H718.5z"/>
			<path class="st0" d="M331.5,277.9v-20.3h-6.9v-1.8h15.8v1.8h-6.9v20.3H331.5z"/>
			<path class="st0" d="M343.2,277.9v-22.1h14.5v1.8h-12.4v8.1h11.4v1.8h-11.4v8.7H358v1.8H343.2z"/>
			<path class="st0" d="M377.3,270.7h2c-0.2,2.4-1,4.4-2.6,5.7s-3.6,2.1-6.2,2.1c-3,0-5.3-1-7-3.1c-1.7-2.1-2.6-4.9-2.6-8.6
				c0-3.6,0.9-6.4,2.6-8.5s4.1-3.1,7.1-3.1c2.5,0,4.5,0.6,6.1,1.9c1.5,1.3,2.4,3,2.5,5.1h-2c-0.2-1.6-0.8-2.9-2-3.8
				c-1.2-0.9-2.7-1.4-4.5-1.4c-2.4,0-4.2,0.9-5.6,2.6c-1.3,1.7-2,4.1-2,7.2c0,3.1,0.7,5.5,2,7.3s3.2,2.6,5.6,2.6
				c1.9,0,3.5-0.5,4.7-1.6C376.5,274,377.1,272.6,377.3,270.7z"/>
			<path class="st0" d="M383.1,277.9v-22.1h2.2l12.5,18.9v-18.9h2v22.1h-2.2l-12.4-18.9v18.9H383.1z"/>
			<path class="st0" d="M403.8,266.9c0-3.6,0.9-6.4,2.7-8.5c1.8-2.1,4.3-3.1,7.4-3.1c3.1,0,5.6,1,7.4,3.1c1.8,2.1,2.7,4.9,2.7,8.5
				c0,3.6-0.9,6.4-2.7,8.5c-1.8,2.1-4.3,3.1-7.4,3.1c-3.1,0-5.6-1-7.4-3.1C404.7,273.3,403.8,270.4,403.8,266.9z M405.9,266.9
				c0,3,0.7,5.4,2.2,7.2c1.4,1.8,3.4,2.6,5.8,2.6c2.5,0,4.4-0.9,5.9-2.6s2.2-4.2,2.2-7.2c0-3-0.7-5.4-2.2-7.2
				c-1.4-1.8-3.4-2.7-5.9-2.7c-2.4,0-4.4,0.9-5.8,2.7C406.6,261.5,405.9,263.9,405.9,266.9z"/>
			<path class="st0" d="M428,277.9v-22.1h2.1v20.3h11.3v1.8H428z"/>
			<path class="st0" d="M441.9,266.9c0-3.6,0.9-6.4,2.7-8.5c1.8-2.1,4.3-3.1,7.4-3.1c3.1,0,5.6,1,7.4,3.1c1.8,2.1,2.7,4.9,2.7,8.5
				c0,3.6-0.9,6.4-2.7,8.5c-1.8,2.1-4.3,3.1-7.4,3.1c-3.1,0-5.6-1-7.4-3.1C442.8,273.3,441.9,270.4,441.9,266.9z M444,266.9
				c0,3,0.7,5.4,2.2,7.2c1.4,1.8,3.4,2.6,5.8,2.6c2.5,0,4.4-0.9,5.9-2.6s2.2-4.2,2.2-7.2c0-3-0.7-5.4-2.2-7.2
				c-1.4-1.8-3.4-2.7-5.9-2.7c-2.4,0-4.4,0.9-5.8,2.7C444.7,261.5,444,263.9,444,266.9z"/>
			<path class="st0" d="M483,277.9l-0.2-3.9c-0.7,1.4-1.7,2.5-3.1,3.3c-1.4,0.8-2.9,1.2-4.7,1.2c-3.1,0-5.5-1-7.2-3.1
				c-1.8-2.1-2.6-4.9-2.6-8.6c0-3.6,0.9-6.4,2.7-8.5s4.2-3.1,7.3-3.1c2.6,0,4.7,0.6,6.3,1.8c1.6,1.2,2.6,2.9,2.9,5.2h-2.1
				c-0.3-1.6-1.1-2.9-2.3-3.8s-2.8-1.4-4.7-1.4c-2.5,0-4.5,0.8-5.9,2.5c-1.4,1.7-2.1,4.1-2.1,7.2c0,3,0.7,5.4,2.1,7.2
				c1.4,1.8,3.3,2.7,5.7,2.7c2.4,0,4.3-0.7,5.7-2.1c1.4-1.4,2-3.4,2-6v-0.1h-7.3v-1.8h9.2v11.3H483z"/>
			<path class="st0" d="M489.2,277.9v-22.1h2.1v22.1H489.2z"/>
			<path class="st0" d="M493.8,277.9l8.4-22.1h2.4l8.4,22.1h-2.1l-2.5-6.8h-9.9l-2.5,6.8H493.8z M499.1,269.3h8.6l-4.3-11.4
				L499.1,269.3z"/>
			<path class="st0" d="M529.6,277.9v-22.1h14.5v1.8h-12.4v8.1H543v1.8h-11.4v8.7h12.8v1.8H529.6z"/>
			<path class="st0" d="M553.4,255.8h1.5c1.8,0,3.2,0.1,4.1,0.3c0.9,0.2,1.7,0.5,2.4,0.9c1.4,0.9,2.4,2.1,3.1,3.8s1.1,3.7,1.1,6
				c0,2.5-0.4,4.6-1.2,6.3c-0.8,1.7-1.9,3-3.5,3.8c-0.6,0.3-1.4,0.6-2.4,0.7s-2.3,0.2-4.3,0.2h-6.1v-22.1H553.4z M550.2,276.1h4.3
				c1.7,0,2.9-0.1,3.7-0.2c0.8-0.1,1.4-0.3,1.9-0.6c1.1-0.7,2-1.7,2.5-3.1c0.5-1.4,0.8-3.1,0.8-5.3c0-2.1-0.3-3.8-0.8-5.2
				c-0.5-1.4-1.3-2.4-2.4-3.1c-0.5-0.4-1.2-0.6-2-0.8c-0.8-0.1-2.1-0.2-4-0.2h-0.5h-3.6V276.1z"/>
			<path class="st0" d="M569.5,255.8h2v13.9c0,2.4,0.5,4.2,1.5,5.3c1,1.1,2.6,1.6,4.8,1.6c2.2,0,3.9-0.5,4.9-1.6
				c1-1.1,1.5-2.9,1.5-5.3v-13.9h2V270c0,2.8-0.7,4.9-2.1,6.4s-3.5,2.1-6.3,2.1c-2.8,0-4.9-0.7-6.3-2.1c-1.4-1.4-2.1-3.5-2.1-6.4
				V255.8z"/>
			<path class="st0" d="M606.5,270.7h2c-0.2,2.4-1,4.4-2.6,5.7c-1.6,1.4-3.6,2.1-6.2,2.1c-3,0-5.3-1-7-3.1s-2.6-4.9-2.6-8.6
				c0-3.6,0.9-6.4,2.6-8.5s4.1-3.1,7.1-3.1c2.5,0,4.5,0.6,6.1,1.9s2.4,3,2.5,5.1h-2c-0.2-1.6-0.8-2.9-2-3.8
				c-1.2-0.9-2.7-1.4-4.5-1.4c-2.4,0-4.2,0.9-5.6,2.6c-1.3,1.7-2,4.1-2,7.2c0,3.1,0.7,5.5,2,7.3c1.4,1.8,3.2,2.6,5.6,2.6
				c1.9,0,3.5-0.5,4.7-1.6C605.7,274,606.3,272.6,606.5,270.7z"/>
			<path class="st0" d="M609.8,277.9l8.4-22.1h2.4l8.4,22.1h-2.1l-2.5-6.8h-9.9l-2.5,6.8H609.8z M615.1,269.3h8.6l-4.3-11.4
				L615.1,269.3z"/>
			<path class="st0" d="M646.8,270.7h2c-0.2,2.4-1,4.4-2.6,5.7c-1.6,1.4-3.6,2.1-6.2,2.1c-3,0-5.3-1-7-3.1c-1.7-2.1-2.6-4.9-2.6-8.6
				c0-3.6,0.9-6.4,2.6-8.5s4.1-3.1,7.1-3.1c2.5,0,4.5,0.6,6.1,1.9c1.5,1.3,2.4,3,2.5,5.1h-2c-0.2-1.6-0.8-2.9-2-3.8
				c-1.2-0.9-2.7-1.4-4.5-1.4c-2.4,0-4.2,0.9-5.6,2.6c-1.3,1.7-2,4.1-2,7.2c0,3.1,0.7,5.5,2,7.3s3.2,2.6,5.6,2.6
				c1.9,0,3.5-0.5,4.7-1.6C646,274,646.6,272.6,646.8,270.7z"/>
			<path class="st0" d="M652.8,277.9v-22.1h2.1v22.1H652.8z"/>
			<path class="st0" d="M659,266.9c0-3.6,0.9-6.4,2.7-8.5c1.8-2.1,4.3-3.1,7.4-3.1c3.1,0,5.6,1,7.4,3.1c1.8,2.1,2.7,4.9,2.7,8.5
				c0,3.6-0.9,6.4-2.7,8.5c-1.8,2.1-4.3,3.1-7.4,3.1c-3.1,0-5.6-1-7.4-3.1C659.9,273.3,659,270.4,659,266.9z M661.1,266.9
				c0,3,0.7,5.4,2.2,7.2c1.4,1.8,3.4,2.6,5.8,2.6c2.5,0,4.4-0.9,5.9-2.6s2.2-4.2,2.2-7.2c0-3-0.7-5.4-2.2-7.2
				c-1.4-1.8-3.4-2.7-5.9-2.7c-2.4,0-4.4,0.9-5.8,2.7C661.8,261.5,661.1,263.9,661.1,266.9z"/>
			<path class="st0" d="M683.2,277.9v-22.1h2.2l12.5,18.9v-18.9h2v22.1h-2.2l-12.4-18.9v18.9H683.2z"/>
			<path class="st0" d="M702.2,277.9l8.4-22.1h2.4l8.4,22.1h-2.1l-2.5-6.8h-9.9l-2.5,6.8H702.2z M707.5,269.3h8.6l-4.3-11.4
				L707.5,269.3z"/>
			<path class="st0" d="M723.7,277.9v-22.1h2.1v20.3h11.3v1.8H723.7z"/>
		</g>
		<g>
			<g>
				<g>
					<g>
						<path class="st0" d="M150.4,76.4c-55.3,0-100.3,45-100.3,100.3S95.1,277,150.4,277s100.3-45,100.3-100.3
							S205.7,76.4,150.4,76.4z M203.8,112H96.9c14.5-12,33.2-19.3,53.5-19.3S189.3,100,203.8,112z M198.7,165.3
							c-4.3-18.3-18.7-32.7-37-37h37V165.3z M183.8,176.7c0,18.4-15,33.4-33.4,33.4s-33.4-15-33.4-33.4s15-33.4,33.4-33.4
							S183.8,158.3,183.8,176.7z M102,165.3v-37h37C120.7,132.6,106.3,147,102,165.3z M102,188c4.3,18.3,18.7,32.7,37,37h-37V188z
							 M198.7,188v37h-37C180,220.8,194.4,206.3,198.7,188z M66.4,176.7c0-20.3,7.2-38.9,19.3-53.5v106.9
							C73.7,215.6,66.4,197,66.4,176.7z M96.9,241.4h106.9c-14.5,12-33.2,19.3-53.5,19.3S111.4,253.4,96.9,241.4z M215,230.2V123.2
							c12,14.5,19.3,33.2,19.3,53.5S227.1,215.6,215,230.2z"/>
					</g>
				</g>
				<g>
					<g>
						<path class="st0" d="M136.3,177c0,8,6.5,14.4,14.4,14.4c8,0,14.4-6.5,14.4-14.4c0-8-6.5-14.4-14.4-14.4
							C142.7,162.6,136.3,169.1,136.3,177z"/>
					</g>
				</g>
			</g>
			<g>
				<g>
					<path class="st0" d="M167.8,59.9c-153.5,0.5-136,147.4-136,147.4s-24-46.6,11.5-112.9C106.7,40.2,166.7,56.4,167.8,59.9z"/>
				</g>
			</g>
			<g>
				<g>
					<path class="st0" d="M132.5,297.9c153.5-0.5,136-147.4,136-147.4s24,46.6-11.5,112.9C193.6,317.6,133.6,301.5,132.5,297.9z"/>
				</g>
			</g>
			<g>
				<g>
					<g>
						<g>
							<path class="st0" d="M139.7,331.9C62.7,331.9,0,269.2,0,192.1C0,154,15.1,118.3,42.6,91.7l15.1-14.6L46.7,95
								c-13.2,21.3-20.2,45.7-20.2,70.8c0,74.2,60.3,134.5,134.5,134.5c35.1,0,68.3-13.4,93.5-37.8l15.1-14.6l-11.1,17.9
								C232.8,307.1,188.4,331.9,139.7,331.9z M32.5,111c-17.7,23.2-27.3,51.4-27.3,81.2c0,74.2,60.3,134.5,134.5,134.5
								c39.8,0,76.7-17.2,102-46.8c-23.5,16.7-51.5,25.7-80.8,25.7c-77,0-139.7-62.7-139.7-139.7C21.3,146.8,25.1,128.2,32.5,111z"
								/>
						</g>
					</g>
					<g>
						<g>
							<path class="st0" d="M243,280.8l11.1-17.9c13.2-21.3,20.2-45.7,20.2-70.8c0-74.2-60.3-134.5-134.5-134.5
								c-35.1,0-68.3,13.4-93.5,37.8l-15.1,14.6l11.1-17.9C67.9,50.8,112.3,26.1,161,26.1c77,0,139.7,62.7,139.7,139.7
								c0,38.2-15.1,73.8-42.6,100.4L243,280.8z M139.7,52.4c77,0,139.7,62.7,139.7,139.7c0,19-3.8,37.6-11.2,54.8
								c17.7-23.2,27.3-51.4,27.3-81.2c0-74.2-60.3-134.5-134.5-134.5c-39.8,0-76.7,17.2-102,46.8C82.4,61.4,110.5,52.4,139.7,52.4z
								"/>
						</g>
					</g>
					<g>
						<g>
							<path class="st0" d="M161,305.5c-77,0-139.7-62.7-139.7-139.7c0-26.1,7.2-51.5,20.9-73.6l0.4-0.5
								c26.2-25.3,60.7-39.3,97.1-39.3c77,0,139.7,62.7,139.7,139.7c0,26.1-7.2,51.5-20.9,73.6l-0.4,0.5
								C231.9,291.6,197.4,305.5,161,305.5z M46.5,95.2c-13.1,21.2-20,45.6-20,70.6c0,74.2,60.3,134.5,134.5,134.5
								c34.9,0,68-13.4,93.2-37.6c13.1-21.2,20-45.6,20-70.5c0-74.2-60.3-134.5-134.5-134.5C104.8,57.6,71.7,71,46.5,95.2z"/>
						</g>
					</g>
				</g>
				<g>
					<g>
						<g>
							
								<rect x="52.2" y="35.9" transform="matrix(0.7187 -0.6953 0.6953 0.7187 9.584996e-02 77.1782)" class="st0" width="86.4" height="5.2"/>
						</g>
					</g>
					<g>
						<g>
							<g>
								<path class="st0" d="M120.1,2.5c3.5-3.4,9-3.3,12.4,0.2c3.4,3.5,3.3,9-0.2,12.4c-3.5,3.4-9,3.3-12.4-0.2
									C116.6,11.3,116.6,5.8,120.1,2.5z"/>
							</g>
						</g>
					</g>
				</g>
				<g>
					<g>
						<g>
							
								<rect x="165.8" y="318.1" transform="matrix(0.7392 -0.6735 0.6735 0.7392 -163.2344 219.7567)" class="st0" width="72.6" height="5.2"/>
						</g>
					</g>
					<g>
						<g>
							<g>
								<path class="st0" d="M181.5,351.3c-3.6,3.3-9.1,3-12.3-0.6c-3.3-3.6-3-9.1,0.6-12.3c3.6-3.3,9.1-3,12.3,0.6
									C185.4,342.5,185.1,348,181.5,351.3z"/>
							</g>
						</g>
					</g>
				</g>
			</g>
		</g>
	</g>
</g>
<g id="Camada_2">
</g>
</svg>
